<mxfile host="app.diagrams.net" agent="Mozilla/5.0 (Windows NT 10.0; Win64; x64) AppleWebKit/537.36 (KHTML, like Gecko) Chrome/134.0.0.0 Safari/537.36 Edg/134.0.0.0" version="28.2.7">
  <diagram name="第 1 页" id="1d3wV3VHD6_PKYP7ci5T">
    <mxGraphModel dx="1034" dy="544" grid="1" gridSize="10" guides="1" tooltips="1" connect="1" arrows="1" fold="1" page="1" pageScale="1" pageWidth="827" pageHeight="1169" math="0" shadow="0">
      <root>
        <mxCell id="0" />
        <mxCell id="1" parent="0" />
        <mxCell id="PvLLfz0_lS-ZaBHEbWD5-1" value="&lt;font&gt;外部系统&lt;/font&gt;" style="rounded=0;whiteSpace=wrap;html=1;hachureGap=4;fontFamily=Helvetica;strokeColor=#9673a6;fontSize=14;fillColor=#e1d5e7;textShadow=1;labelBackgroundColor=none;labelBorderColor=none;" parent="1" vertex="1">
          <mxGeometry x="49" y="140" width="120" height="30" as="geometry" />
        </mxCell>
        <mxCell id="PvLLfz0_lS-ZaBHEbWD5-2" value="&lt;font&gt;外部系统&lt;/font&gt;" style="rounded=0;whiteSpace=wrap;html=1;hachureGap=4;fontFamily=Helvetica;strokeColor=#9673a6;fontSize=14;fillColor=#e1d5e7;textShadow=1;labelBackgroundColor=none;labelBorderColor=none;" parent="1" vertex="1">
          <mxGeometry x="529" y="140" width="120" height="30" as="geometry" />
        </mxCell>
        <mxCell id="PvLLfz0_lS-ZaBHEbWD5-3" value="&lt;font&gt;车站&lt;/font&gt;" style="rounded=0;whiteSpace=wrap;html=1;hachureGap=4;fontFamily=Helvetica;strokeColor=#9673a6;fontSize=14;fillColor=#e1d5e7;textShadow=1;labelBackgroundColor=none;labelBorderColor=none;" parent="1" vertex="1">
          <mxGeometry x="279" y="140" width="120" height="30" as="geometry" />
        </mxCell>
        <mxCell id="hTW7HADQhVkxciLwx3_A-1" style="rounded=0;hachureGap=4;orthogonalLoop=1;jettySize=auto;html=1;entryX=0;entryY=0.5;entryDx=0;entryDy=0;fontFamily=Architects Daughter;fontSource=https%3A%2F%2Ffonts.googleapis.com%2Fcss%3Ffamily%3DArchitects%2BDaughter;endArrow=none;endFill=0;exitX=1;exitY=0.5;exitDx=0;exitDy=0;" edge="1" parent="1" source="PvLLfz0_lS-ZaBHEbWD5-10" target="PvLLfz0_lS-ZaBHEbWD5-21">
          <mxGeometry relative="1" as="geometry" />
        </mxCell>
        <mxCell id="PvLLfz0_lS-ZaBHEbWD5-10" value="&lt;font&gt;SAM3.0应用&lt;/font&gt;" style="shape=process;whiteSpace=wrap;html=1;backgroundOutline=1;hachureGap=4;fontFamily=Helvetica;fontSize=14;fillColor=#cce5ff;strokeColor=#36393d;textShadow=1;labelBackgroundColor=none;labelBorderColor=none;" parent="1" vertex="1">
          <mxGeometry x="279" y="210" width="120" height="60" as="geometry" />
        </mxCell>
        <mxCell id="PvLLfz0_lS-ZaBHEbWD5-11" style="rounded=0;hachureGap=4;orthogonalLoop=1;jettySize=auto;html=1;entryX=0.5;entryY=0;entryDx=0;entryDy=0;fontFamily=Helvetica;endArrow=classic;endFill=1;fontSize=14;textShadow=1;labelBackgroundColor=none;labelBorderColor=none;" parent="1" source="PvLLfz0_lS-ZaBHEbWD5-42" target="PvLLfz0_lS-ZaBHEbWD5-13" edge="1">
          <mxGeometry relative="1" as="geometry" />
        </mxCell>
        <mxCell id="PvLLfz0_lS-ZaBHEbWD5-12" value="" style="endArrow=none;html=1;rounded=0;hachureGap=4;fontFamily=Helvetica;entryX=0.5;entryY=1;entryDx=0;entryDy=0;exitX=0.5;exitY=0;exitDx=0;exitDy=0;exitPerimeter=0;fontSize=14;textShadow=1;labelBackgroundColor=none;labelBorderColor=none;" parent="1" source="PvLLfz0_lS-ZaBHEbWD5-33" target="PvLLfz0_lS-ZaBHEbWD5-10" edge="1">
          <mxGeometry width="50" height="50" relative="1" as="geometry">
            <mxPoint x="329" y="350" as="sourcePoint" />
            <mxPoint x="379" y="300" as="targetPoint" />
          </mxGeometry>
        </mxCell>
        <mxCell id="PvLLfz0_lS-ZaBHEbWD5-13" value="&lt;font&gt;Sam控制系统&lt;/font&gt;" style="whiteSpace=wrap;html=1;fontFamily=Helvetica;hachureGap=4;fontSize=14;fillColor=#fff2cc;strokeColor=#d6b656;textShadow=1;labelBackgroundColor=none;labelBorderColor=none;" parent="1" vertex="1">
          <mxGeometry x="279" y="620" width="120" height="30" as="geometry" />
        </mxCell>
        <mxCell id="PvLLfz0_lS-ZaBHEbWD5-14" value="" style="endArrow=none;dashed=1;html=1;dashPattern=1 3;strokeWidth=2;rounded=0;hachureGap=4;fontFamily=Helvetica;fontSize=14;textShadow=1;labelBackgroundColor=none;labelBorderColor=none;" parent="1" edge="1">
          <mxGeometry width="50" height="50" relative="1" as="geometry">
            <mxPoint x="479" y="820" as="sourcePoint" />
            <mxPoint x="479" y="110" as="targetPoint" />
          </mxGeometry>
        </mxCell>
        <mxCell id="PvLLfz0_lS-ZaBHEbWD5-15" value="" style="endArrow=none;dashed=1;html=1;dashPattern=1 3;strokeWidth=2;rounded=0;hachureGap=4;fontFamily=Helvetica;fontSize=14;textShadow=1;labelBackgroundColor=none;labelBorderColor=none;" parent="1" edge="1">
          <mxGeometry width="50" height="50" relative="1" as="geometry">
            <mxPoint x="40" y="190" as="sourcePoint" />
            <mxPoint x="650" y="190" as="targetPoint" />
          </mxGeometry>
        </mxCell>
        <mxCell id="PvLLfz0_lS-ZaBHEbWD5-16" value="" style="endArrow=none;dashed=1;html=1;dashPattern=1 3;strokeWidth=2;rounded=0;hachureGap=4;fontFamily=Helvetica;fontSize=14;textShadow=1;labelBackgroundColor=none;labelBorderColor=none;" parent="1" edge="1">
          <mxGeometry width="50" height="50" relative="1" as="geometry">
            <mxPoint x="199" y="820" as="sourcePoint" />
            <mxPoint x="199" y="110" as="targetPoint" />
          </mxGeometry>
        </mxCell>
        <mxCell id="PvLLfz0_lS-ZaBHEbWD5-19" style="rounded=0;hachureGap=4;orthogonalLoop=1;jettySize=auto;html=1;entryX=1;entryY=0.5;entryDx=0;entryDy=0;fontFamily=Helvetica;endArrow=none;endFill=0;fontSize=14;textShadow=1;labelBackgroundColor=none;labelBorderColor=none;" parent="1" source="PvLLfz0_lS-ZaBHEbWD5-20" target="PvLLfz0_lS-ZaBHEbWD5-10" edge="1">
          <mxGeometry relative="1" as="geometry" />
        </mxCell>
        <mxCell id="PvLLfz0_lS-ZaBHEbWD5-20" value="货管平台" style="ellipse;whiteSpace=wrap;html=1;hachureGap=4;fontFamily=Helvetica;fontSize=14;fillColor=#dae8fc;strokeColor=#6c8ebf;textShadow=1;labelBackgroundColor=none;labelBorderColor=none;fillStyle=auto;gradientColor=#7ea6e0;" parent="1" vertex="1">
          <mxGeometry x="529" y="200" width="120" height="80" as="geometry" />
        </mxCell>
        <mxCell id="PvLLfz0_lS-ZaBHEbWD5-21" value="&lt;font&gt;确报系统&lt;/font&gt;" style="ellipse;whiteSpace=wrap;html=1;hachureGap=4;fontFamily=Helvetica;fontSize=14;fillColor=#dae8fc;strokeColor=#6c8ebf;textShadow=1;labelBackgroundColor=none;labelBorderColor=none;fillStyle=auto;gradientColor=#7ea6e0;" parent="1" vertex="1">
          <mxGeometry x="529" y="380" width="120" height="80" as="geometry" />
        </mxCell>
        <mxCell id="PvLLfz0_lS-ZaBHEbWD5-22" style="rounded=0;hachureGap=4;orthogonalLoop=1;jettySize=auto;html=1;fontFamily=Helvetica;endArrow=none;endFill=0;exitX=0;exitY=0.5;exitDx=0;exitDy=0;fontSize=14;entryX=1;entryY=0.5;entryDx=0;entryDy=0;textShadow=1;labelBackgroundColor=none;labelBorderColor=none;" parent="1" source="PvLLfz0_lS-ZaBHEbWD5-24" target="PvLLfz0_lS-ZaBHEbWD5-10" edge="1">
          <mxGeometry relative="1" as="geometry">
            <mxPoint x="399" y="270" as="targetPoint" />
          </mxGeometry>
        </mxCell>
        <mxCell id="PvLLfz0_lS-ZaBHEbWD5-24" value="&lt;font&gt;运输集成平台&lt;/font&gt;" style="ellipse;whiteSpace=wrap;html=1;hachureGap=4;fontFamily=Helvetica;fontSize=14;fillColor=#dae8fc;strokeColor=#6c8ebf;textShadow=1;labelBackgroundColor=none;labelBorderColor=none;fillStyle=auto;gradientColor=#7ea6e0;" parent="1" vertex="1">
          <mxGeometry x="529" y="290" width="120" height="80" as="geometry" />
        </mxCell>
        <mxCell id="PvLLfz0_lS-ZaBHEbWD5-25" style="rounded=0;hachureGap=4;orthogonalLoop=1;jettySize=auto;html=1;fontFamily=Helvetica;endArrow=none;endFill=0;exitX=0;exitY=0.5;exitDx=0;exitDy=0;fontSize=14;entryX=1;entryY=0.5;entryDx=0;entryDy=0;textShadow=1;labelBackgroundColor=none;labelBorderColor=none;" parent="1" source="PvLLfz0_lS-ZaBHEbWD5-26" target="PvLLfz0_lS-ZaBHEbWD5-10" edge="1">
          <mxGeometry relative="1" as="geometry">
            <mxPoint x="399" y="270" as="targetPoint" />
          </mxGeometry>
        </mxCell>
        <mxCell id="PvLLfz0_lS-ZaBHEbWD5-26" value="票据电子化平台" style="ellipse;whiteSpace=wrap;html=1;hachureGap=4;fontFamily=Helvetica;fontSize=14;fillColor=#dae8fc;strokeColor=#6c8ebf;textShadow=1;labelBackgroundColor=none;labelBorderColor=none;fillStyle=auto;gradientColor=#7ea6e0;" parent="1" vertex="1">
          <mxGeometry x="529" y="471" width="120" height="80" as="geometry" />
        </mxCell>
        <mxCell id="PvLLfz0_lS-ZaBHEbWD5-29" style="rounded=0;hachureGap=4;orthogonalLoop=1;jettySize=auto;html=1;entryX=1;entryY=0.5;entryDx=0;entryDy=0;fontFamily=Helvetica;endArrow=none;endFill=0;dashed=1;dashPattern=8 8;fontSize=14;exitX=0.012;exitY=0.987;exitDx=0;exitDy=0;exitPerimeter=0;textShadow=1;labelBackgroundColor=none;labelBorderColor=none;" parent="1" source="PvLLfz0_lS-ZaBHEbWD5-30" target="PvLLfz0_lS-ZaBHEbWD5-10" edge="1">
          <mxGeometry relative="1" as="geometry" />
        </mxCell>
        <mxCell id="PvLLfz0_lS-ZaBHEbWD5-30" value="&lt;div&gt;&lt;br&gt;&lt;/div&gt;&lt;div&gt;&lt;br&gt;&lt;/div&gt;手持机" style="shape=actor;whiteSpace=wrap;html=1;hachureGap=4;fontFamily=Helvetica;fontSize=14;textShadow=1;labelBackgroundColor=none;labelBorderColor=none;fillColor=#bac8d3;strokeColor=#23445d;" parent="1" vertex="1">
          <mxGeometry x="563.5" y="50" width="51" height="60" as="geometry" />
        </mxCell>
        <mxCell id="PvLLfz0_lS-ZaBHEbWD5-31" value="&lt;font&gt;HMIS&lt;/font&gt;" style="ellipse;whiteSpace=wrap;html=1;hachureGap=4;fontFamily=Helvetica;fontSize=14;fillColor=#dae8fc;strokeColor=#6c8ebf;textShadow=1;labelBackgroundColor=none;labelBorderColor=none;fillStyle=auto;gradientColor=#7ea6e0;" parent="1" vertex="1">
          <mxGeometry x="49" y="290" width="120" height="80" as="geometry" />
        </mxCell>
        <mxCell id="PvLLfz0_lS-ZaBHEbWD5-32" value="" style="endArrow=none;html=1;rounded=0;hachureGap=4;fontFamily=Helvetica;entryX=0.5;entryY=1;entryDx=0;entryDy=0;exitX=0.5;exitY=0;exitDx=0;exitDy=0;exitPerimeter=0;fontSize=14;endFill=0;startArrow=classic;startFill=1;textShadow=1;labelBackgroundColor=none;labelBorderColor=none;" parent="1" source="PvLLfz0_lS-ZaBHEbWD5-42" target="PvLLfz0_lS-ZaBHEbWD5-33" edge="1">
          <mxGeometry width="50" height="50" relative="1" as="geometry">
            <mxPoint x="339" y="540" as="sourcePoint" />
            <mxPoint x="339" y="300" as="targetPoint" />
          </mxGeometry>
        </mxCell>
        <mxCell id="PvLLfz0_lS-ZaBHEbWD5-33" value="&lt;font&gt;SAM3.0&lt;/font&gt;&lt;div&gt;&lt;font&gt;数据库&lt;/font&gt;&lt;/div&gt;" style="shape=cylinder3;whiteSpace=wrap;html=1;boundedLbl=1;backgroundOutline=1;size=15;hachureGap=4;fontFamily=Helvetica;fontSize=14;fillColor=#fff2cc;strokeColor=#d6b656;textShadow=1;labelBackgroundColor=none;labelBorderColor=none;" parent="1" vertex="1">
          <mxGeometry x="309" y="310" width="60" height="80" as="geometry" />
        </mxCell>
        <mxCell id="PvLLfz0_lS-ZaBHEbWD5-34" style="rounded=0;hachureGap=4;orthogonalLoop=1;jettySize=auto;html=1;entryX=0;entryY=0.5;entryDx=0;entryDy=0;fontFamily=Architects Daughter;fontSource=https%3A%2F%2Ffonts.googleapis.com%2Fcss%3Ffamily%3DArchitects%2BDaughter;endArrow=none;endFill=0;exitX=1;exitY=0.5;exitDx=0;exitDy=0;textShadow=1;labelBackgroundColor=none;labelBorderColor=none;" parent="1" source="PvLLfz0_lS-ZaBHEbWD5-31" target="PvLLfz0_lS-ZaBHEbWD5-10" edge="1">
          <mxGeometry relative="1" as="geometry" />
        </mxCell>
        <mxCell id="PvLLfz0_lS-ZaBHEbWD5-36" value="" style="rounded=0;hachureGap=4;orthogonalLoop=1;jettySize=auto;html=1;entryX=0.5;entryY=0;entryDx=0;entryDy=0;fontFamily=Helvetica;endArrow=none;endFill=0;fontSize=14;textShadow=1;labelBackgroundColor=none;labelBorderColor=none;" parent="1" source="PvLLfz0_lS-ZaBHEbWD5-42" target="PvLLfz0_lS-ZaBHEbWD5-37" edge="1">
          <mxGeometry relative="1" as="geometry">
            <mxPoint x="339" y="530" as="sourcePoint" />
            <mxPoint x="339" y="641" as="targetPoint" />
          </mxGeometry>
        </mxCell>
        <mxCell id="PvLLfz0_lS-ZaBHEbWD5-37" value="调车计划，&lt;div&gt;作业通知及回执，到发报&lt;/div&gt;" style="text;html=1;align=center;verticalAlign=middle;resizable=0;points=[];autosize=1;strokeColor=none;fillColor=none;fontFamily=Helvetica;fontSize=14;textShadow=1;labelBackgroundColor=none;labelBorderColor=none;" parent="1" vertex="1">
          <mxGeometry x="249" y="545" width="180" height="50" as="geometry" />
        </mxCell>
        <mxCell id="PvLLfz0_lS-ZaBHEbWD5-39" style="rounded=0;hachureGap=4;orthogonalLoop=1;jettySize=auto;html=1;entryX=0;entryY=0.5;entryDx=0;entryDy=0;fontFamily=Architects Daughter;fontSource=https%3A%2F%2Ffonts.googleapis.com%2Fcss%3Ffamily%3DArchitects%2BDaughter;endArrow=none;endFill=0;startArrow=none;startFill=0;exitX=1;exitY=0.5;exitDx=0;exitDy=0;textShadow=1;labelBackgroundColor=none;labelBorderColor=none;" parent="1" source="PvLLfz0_lS-ZaBHEbWD5-40" target="PvLLfz0_lS-ZaBHEbWD5-10" edge="1">
          <mxGeometry relative="1" as="geometry" />
        </mxCell>
        <mxCell id="PvLLfz0_lS-ZaBHEbWD5-40" value="&lt;span&gt;（新版）局站一体化接口&lt;/span&gt;" style="ellipse;whiteSpace=wrap;html=1;hachureGap=4;fontFamily=Helvetica;fontSize=14;fillColor=#dae8fc;strokeColor=#6c8ebf;textShadow=1;labelBackgroundColor=none;labelBorderColor=none;gradientColor=#7ea6e0;" parent="1" vertex="1">
          <mxGeometry x="49" y="200" width="120" height="80" as="geometry" />
        </mxCell>
        <mxCell id="PvLLfz0_lS-ZaBHEbWD5-41" value="" style="rounded=0;hachureGap=4;orthogonalLoop=1;jettySize=auto;html=1;entryX=0.5;entryY=0;entryDx=0;entryDy=0;fontFamily=Helvetica;endArrow=classic;endFill=1;fontSize=14;textShadow=1;labelBackgroundColor=none;labelBorderColor=none;" parent="1" source="PvLLfz0_lS-ZaBHEbWD5-37" target="PvLLfz0_lS-ZaBHEbWD5-42" edge="1">
          <mxGeometry relative="1" as="geometry">
            <mxPoint x="339" y="465" as="sourcePoint" />
            <mxPoint x="339" y="620" as="targetPoint" />
          </mxGeometry>
        </mxCell>
        <mxCell id="PvLLfz0_lS-ZaBHEbWD5-42" value="&lt;font&gt;Smis2.9&lt;/font&gt;&lt;div&gt;&lt;font&gt;数据库&lt;/font&gt;&lt;/div&gt;" style="shape=cylinder3;whiteSpace=wrap;html=1;boundedLbl=1;backgroundOutline=1;size=15;hachureGap=4;fontFamily=Helvetica;fontSize=14;fillColor=#fff2cc;strokeColor=#d6b656;textShadow=1;labelBackgroundColor=none;labelBorderColor=none;" parent="1" vertex="1">
          <mxGeometry x="310" y="440" width="60" height="80" as="geometry" />
        </mxCell>
        <mxCell id="hTW7HADQhVkxciLwx3_A-5" value="&lt;font&gt;车号识别&lt;/font&gt;&lt;div&gt;&lt;font&gt;（编尾ATIS）&lt;/font&gt;&lt;/div&gt;" style="ellipse;whiteSpace=wrap;html=1;hachureGap=4;fontFamily=Helvetica;fontSize=14;fillColor=#dae8fc;strokeColor=#6c8ebf;gradientColor=#7ea6e0;textShadow=1;" vertex="1" parent="1">
          <mxGeometry x="529" y="564" width="120" height="80" as="geometry" />
        </mxCell>
        <mxCell id="hTW7HADQhVkxciLwx3_A-6" value="超偏载&lt;br&gt;(轨道衡)" style="ellipse;whiteSpace=wrap;html=1;hachureGap=4;fontFamily=Helvetica;fontSize=14;fillColor=#dae8fc;strokeColor=#6c8ebf;gradientColor=#7ea6e0;textShadow=1;" vertex="1" parent="1">
          <mxGeometry x="529" y="654" width="120" height="80" as="geometry" />
        </mxCell>
        <mxCell id="hTW7HADQhVkxciLwx3_A-7" value="列尾电子派工单" style="ellipse;whiteSpace=wrap;html=1;hachureGap=4;fontFamily=Helvetica;fontSize=14;fillColor=#dae8fc;strokeColor=#6c8ebf;gradientColor=#7ea6e0;textShadow=1;" vertex="1" parent="1">
          <mxGeometry x="529" y="744" width="120" height="80" as="geometry" />
        </mxCell>
        <mxCell id="hTW7HADQhVkxciLwx3_A-8" value="华方18点" style="ellipse;whiteSpace=wrap;html=1;hachureGap=4;fontFamily=Helvetica;fontSize=14;fillColor=#dae8fc;strokeColor=#6c8ebf;gradientColor=#7ea6e0;textShadow=1;" vertex="1" parent="1">
          <mxGeometry x="49" y="380" width="120" height="80" as="geometry" />
        </mxCell>
        <mxCell id="hTW7HADQhVkxciLwx3_A-14" style="rounded=0;hachureGap=4;orthogonalLoop=1;jettySize=auto;html=1;fontFamily=Architects Daughter;fontSource=https%3A%2F%2Ffonts.googleapis.com%2Fcss%3Ffamily%3DArchitects%2BDaughter;endArrow=none;endFill=0;" edge="1" parent="1" source="hTW7HADQhVkxciLwx3_A-9">
          <mxGeometry relative="1" as="geometry">
            <mxPoint x="310" y="480" as="targetPoint" />
          </mxGeometry>
        </mxCell>
        <mxCell id="hTW7HADQhVkxciLwx3_A-9" value="&lt;span&gt;全路车流&lt;/span&gt;" style="ellipse;whiteSpace=wrap;html=1;hachureGap=4;fontFamily=Helvetica;fontSize=14;fillColor=#dae8fc;strokeColor=#6c8ebf;gradientColor=#7ea6e0;textShadow=1;" vertex="1" parent="1">
          <mxGeometry x="49" y="470" width="120" height="80" as="geometry" />
        </mxCell>
        <mxCell id="hTW7HADQhVkxciLwx3_A-10" value="&lt;span&gt;钩计划打印&lt;/span&gt;" style="ellipse;whiteSpace=wrap;html=1;hachureGap=4;fontFamily=Helvetica;fontSize=14;fillColor=#dae8fc;strokeColor=#6c8ebf;gradientColor=#7ea6e0;textShadow=1;" vertex="1" parent="1">
          <mxGeometry x="49" y="560" width="120" height="80" as="geometry" />
        </mxCell>
        <mxCell id="hTW7HADQhVkxciLwx3_A-11" value="&lt;span&gt;JSQ底盘高度预警&lt;/span&gt;" style="ellipse;whiteSpace=wrap;html=1;hachureGap=4;fontFamily=Helvetica;fontSize=14;fillColor=#dae8fc;strokeColor=#6c8ebf;gradientColor=#7ea6e0;textShadow=1;" vertex="1" parent="1">
          <mxGeometry x="49" y="650" width="120" height="80" as="geometry" />
        </mxCell>
        <mxCell id="hTW7HADQhVkxciLwx3_A-12" value="&lt;span&gt;运统1合规性&lt;/span&gt;" style="ellipse;whiteSpace=wrap;html=1;hachureGap=4;fontFamily=Helvetica;fontSize=14;fillColor=#dae8fc;strokeColor=#6c8ebf;gradientColor=#7ea6e0;textShadow=1;" vertex="1" parent="1">
          <mxGeometry x="49" y="740" width="120" height="80" as="geometry" />
        </mxCell>
        <mxCell id="hTW7HADQhVkxciLwx3_A-13" style="rounded=0;hachureGap=4;orthogonalLoop=1;jettySize=auto;html=1;entryX=0;entryY=0.5;entryDx=0;entryDy=0;entryPerimeter=0;fontFamily=Architects Daughter;fontSource=https%3A%2F%2Ffonts.googleapis.com%2Fcss%3Ffamily%3DArchitects%2BDaughter;endArrow=none;endFill=0;" edge="1" parent="1" source="hTW7HADQhVkxciLwx3_A-8" target="PvLLfz0_lS-ZaBHEbWD5-42">
          <mxGeometry relative="1" as="geometry" />
        </mxCell>
        <mxCell id="hTW7HADQhVkxciLwx3_A-15" style="rounded=0;hachureGap=4;orthogonalLoop=1;jettySize=auto;html=1;entryX=0;entryY=0.5;entryDx=0;entryDy=0;entryPerimeter=0;fontFamily=Architects Daughter;fontSource=https%3A%2F%2Ffonts.googleapis.com%2Fcss%3Ffamily%3DArchitects%2BDaughter;endArrow=none;endFill=0;" edge="1" parent="1" source="hTW7HADQhVkxciLwx3_A-10" target="PvLLfz0_lS-ZaBHEbWD5-42">
          <mxGeometry relative="1" as="geometry" />
        </mxCell>
        <mxCell id="hTW7HADQhVkxciLwx3_A-16" style="rounded=0;hachureGap=4;orthogonalLoop=1;jettySize=auto;html=1;entryX=0;entryY=0.5;entryDx=0;entryDy=0;entryPerimeter=0;fontFamily=Architects Daughter;fontSource=https%3A%2F%2Ffonts.googleapis.com%2Fcss%3Ffamily%3DArchitects%2BDaughter;endArrow=none;endFill=0;" edge="1" parent="1" source="hTW7HADQhVkxciLwx3_A-11" target="PvLLfz0_lS-ZaBHEbWD5-42">
          <mxGeometry relative="1" as="geometry" />
        </mxCell>
        <mxCell id="hTW7HADQhVkxciLwx3_A-17" style="rounded=0;hachureGap=4;orthogonalLoop=1;jettySize=auto;html=1;entryX=0;entryY=0.5;entryDx=0;entryDy=0;entryPerimeter=0;fontFamily=Architects Daughter;fontSource=https%3A%2F%2Ffonts.googleapis.com%2Fcss%3Ffamily%3DArchitects%2BDaughter;endArrow=none;endFill=0;" edge="1" parent="1" source="hTW7HADQhVkxciLwx3_A-12" target="PvLLfz0_lS-ZaBHEbWD5-42">
          <mxGeometry relative="1" as="geometry" />
        </mxCell>
        <mxCell id="hTW7HADQhVkxciLwx3_A-18" style="rounded=0;hachureGap=4;orthogonalLoop=1;jettySize=auto;html=1;entryX=1;entryY=0.5;entryDx=0;entryDy=0;entryPerimeter=0;fontFamily=Architects Daughter;fontSource=https%3A%2F%2Ffonts.googleapis.com%2Fcss%3Ffamily%3DArchitects%2BDaughter;endArrow=none;endFill=0;" edge="1" parent="1" source="hTW7HADQhVkxciLwx3_A-5" target="PvLLfz0_lS-ZaBHEbWD5-42">
          <mxGeometry relative="1" as="geometry" />
        </mxCell>
        <mxCell id="hTW7HADQhVkxciLwx3_A-19" style="rounded=0;hachureGap=4;orthogonalLoop=1;jettySize=auto;html=1;entryX=1;entryY=0.5;entryDx=0;entryDy=0;entryPerimeter=0;fontFamily=Architects Daughter;fontSource=https%3A%2F%2Ffonts.googleapis.com%2Fcss%3Ffamily%3DArchitects%2BDaughter;endArrow=none;endFill=0;" edge="1" parent="1" source="hTW7HADQhVkxciLwx3_A-6" target="PvLLfz0_lS-ZaBHEbWD5-42">
          <mxGeometry relative="1" as="geometry" />
        </mxCell>
        <mxCell id="hTW7HADQhVkxciLwx3_A-20" style="rounded=0;hachureGap=4;orthogonalLoop=1;jettySize=auto;html=1;entryX=1;entryY=0.5;entryDx=0;entryDy=0;entryPerimeter=0;fontFamily=Architects Daughter;fontSource=https%3A%2F%2Ffonts.googleapis.com%2Fcss%3Ffamily%3DArchitects%2BDaughter;endArrow=none;endFill=0;" edge="1" parent="1" source="hTW7HADQhVkxciLwx3_A-7" target="PvLLfz0_lS-ZaBHEbWD5-42">
          <mxGeometry relative="1" as="geometry" />
        </mxCell>
      </root>
    </mxGraphModel>
  </diagram>
</mxfile>
